<?xml version="1.0" encoding="utf-8"?>
<svg width="300" height="73.426" xmlns="http://www.w3.org/2000/svg">
  <path fill="#1fccb3" d="M 24.137852,2.6924019 C 19.645291,0.89538362 16.839976,0.22049173 13.469541,0.22049173 5.5008584,0.22049173 0,5.0504832 0,12.124758 c 0,5.163366 2.4678546,8.867207 7.8589397,11.786351 l 3.5899813,1.910847 c 3.931497,1.906822 4.378701,2.358112 4.378701,3.817669 0,1.56936 -1.345728,2.695543 -3.589981,2.695543 -3.5940361,0 -7.1880726,-1.235955 -12.237641,-4.1551 l 1.2318996,11.90018 c 4.4925607,1.459588 7.7491664,2.13448 11.0057414,2.13448 8.981067,0 15.042958,-5.167453 15.042958,-12.798705 0,-3.033004 -1.008267,-5.838289 -2.919145,-7.972769 -1.459557,-1.683189 -2.695512,-2.581713 -7.074244,-4.939794 l -4.488505,-2.471911 c -1.122126,-0.561063 -1.797018,-1.459587 -1.797018,-2.358081 0,-1.2319 1.122126,-2.0206507 3.142776,-2.0206507 2.47191,0 5.728516,1.1221267 9.993389,3.7038097 z" clip-path="url(#clipPath1307)"/>
  <path fill="#1fccb3" d="M 33.346606,41.091686 H 44.46212 V 24.137852 L 67.929137,42.665103 V 1.4595875 H 56.813621 V 17.962132 L 33.460435,0 v 41.091686 z" clip-path="url(#clipPath2260)"/>
  <path fill="#1fccb3" d="M 114.06957,41.091686 93.074462,0 71.628098,41.091686 h 12.014039 l 1.910847,-4.602333 h 14.258292 l 1.906784,4.602333 z M 96.10338,27.731919 h -6.960416 l 3.480209,-7.972769 z" clip-path="url(#clipPath1473)"/>
  <path fill="#1fccb3" d="m 117.439,41.091686 h 11.11551 V 28.292982 h 0.7847 c 9.87956,0 16.39273,-5.277256 16.39273,-13.359798 0,-4.268928 -2.02062,-8.1963706 -5.50082,-10.554452 C 137.19811,2.3581119 133.7179,1.5693608 127.99348,1.5693608 H 117.32517 V 41.091686 Z m 11.11551,-21.669997 v -8.420002 h 1.45959 c 2.80531,0 4.26487,1.345758 4.26487,3.931497 0,2.581714 -1.56933,4.264903 -4.26487,4.378732 z" clip-path="url(#clipPath221)"/>
  <path fill="#1fccb3" d="m 172.79519,2.6924019 c -4.49255,-1.79701828 -7.29787,-2.47191017 -10.6683,-2.47191017 -7.96869,0 -13.46954,4.82999147 -13.46954,11.90426627 0,5.163366 2.46785,8.867207 7.85893,11.786351 l 3.58999,1.910847 c 3.93149,1.906822 4.37869,2.358112 4.37869,3.817669 0,1.56936 -1.34572,2.695543 -3.58998,2.695543 -3.59404,0 -7.18806,-1.235955 -12.23763,-4.1551 l 1.23189,11.90018 c 4.49256,1.459588 7.74917,2.13448 11.00574,2.13448 8.98107,0 15.04296,-5.167453 15.04296,-12.798705 0,-3.033004 -1.00826,-5.838289 -2.91914,-7.972769 -1.45956,-1.683189 -2.69551,-2.581713 -7.07425,-4.939794 l -4.4885,-2.471911 c -1.12212,-0.561063 -1.79702,-1.459587 -1.79702,-2.358081 0,-1.2319 1.12212,-2.0206507 3.14278,-2.0206507 2.47191,0 5.72852,1.1221267 9.99338,3.7038097 z" clip-path="url(#clipPath3174)"/>
  <path fill="#1fccb3" d="M 181.99785,41.091686 H 193.5606 V 32.11062 l 11.45298,-2.248308 v 11.229374 h 11.5668 V 1.4595875 h -11.5668 V 15.380418 H 193.5606 V 1.4595875 h -11.56275 z" clip-path="url(#clipPath8843)"/>
  <path fill="#1fccb3" d="m 239.71112,11.562688 h 8.08255 14.70958 C 259.13687,4.7120463 252.1724,0.10971224 243.7524,0.10971224 c -8.42001,0 -15.38042,4.60233406 -18.86063,11.45297576 z" clip-path="url(#clipPath9668)"/>
  <path fill="#1fccb3" d="m 252.84733,20.881216 -17.85234,3.366379 -11.56275,2.248307 c 2.24426,9.432326 10.10316,15.831709 20.32019,15.831709 12.01404,0 20.9951,-9.094895 20.9951,-21.108934 0,-0.898525 -0.10978,-1.797049 -0.10978,-2.695542 z" clip-path="url(#clipPath607)"/>
  <path fill="#1fccb3" d="m 266.428,1.4661434 h 33.57021 V 11.569305 H 266.428 Z" clip-path="url(#clipPath1018)"/>
  <path fill="#1fccb3" d="m 277.43348,16.164016 v 24.926603 h 11.45297 V 13.919763 Z" clip-path="url(#clipPath9679)"/>
  <path fill="#33ff7c" d="m 216.58251,30.199743 v -2.020651 l -6.28552,1.122127 -5.27722,0.674922 z" clip-path="url(#clipPath6704)"/>
  <path fill="#33ff7c" d="m 277.43348,25.037352 11.45297,-0.898525 v -8.981035 l -11.45297,2.02062 z" clip-path="url(#clipPath4849)"/>
  <path fill="#33ff7c" d="m 264.6327,19.420621 -11.79044,2.020651 c 0,0.337431 0,0.674892 -0.10977,1.012323 l -25.15021,3.256606 -4.1551,0.784665 c 0.22351,0.898524 0.44724,1.683189 0.78467,2.467885 l 27.39851,-2.02065 12.68488,-0.898525 c 0.33746,-1.459557 0.45128,-3.142746 0.45128,-4.716163 0,-0.670836 -0.11373,-1.345728 -0.11373,-1.906792" clip-path="url(#clipPath4305)"/>
  <path fill="#00967d" d="m 216.58251,28.629376 v -1.012353 l -11.56274,2.358082 z" clip-path="url(#clipPath1985)"/>
  <path fill="#00967d" d="m 264.52293,18.636963 -11.67658,2.244253 -29.41511,5.614686 c 0,0.113738 0.10977,0.223511 0.10977,0.451291 l 29.30534,-4.492561 11.90017,-1.797018 c -0.10977,-0.784696 -0.10977,-1.345759 -0.2235,-2.020651" clip-path="url(#clipPath5084)"/>
  <path fill="#00967d" d="m 277.43348,18.636963 11.45297,-1.797018 V 13.9208 l -11.45297,2.244253 z" clip-path="url(#clipPath4148)"/>
  <path fill="#1fccb3" d="M 330.164 3.066 C 325.671 1.269 322.866 0.594 319.495 0.594 C 311.527 0.594 306.026 5.424 306.026 12.499 C 306.026 17.662 308.494 21.366 313.885 24.285 L 317.475 26.196 C 321.406 28.103 321.853 28.554 321.853 30.014 C 321.853 31.583 320.508 32.709 318.263 32.709 C 314.669 32.709 311.075 31.473 306.026 28.554 L 307.258 40.454 C 311.75 41.914 315.007 42.589 318.263 42.589 C 327.244 42.589 333.306 37.421 333.306 29.79 C 333.306 26.757 332.298 23.952 330.387 21.817 C 328.928 20.134 327.692 19.235 323.313 16.877 L 318.824 14.405 C 317.702 13.844 317.027 12.946 317.027 12.047 C 317.027 10.815 318.15 10.027 320.17 10.027 C 322.642 10.027 325.899 11.149 330.164 13.731 L 330.164 3.066 Z" clip-path="url(#clipPath1307)"/>
</svg>